<svg width="21" height="22" viewBox="0 0 21 22" fill="none" xmlns="http://www.w3.org/2000/svg">
<mask id="mask0_1_849" style="mask-type:alpha" maskUnits="userSpaceOnUse" x="0" y="0" width="21" height="22">
<rect y="0.5" width="21" height="21" fill="#D9D9D9"/>
</mask>
<g mask="url(#mask0_1_849)">
<path d="M10.8314 13.7291L7.27853 15.8694C7.12158 15.9693 6.9575 16.0121 6.78627 15.9978C6.61505 15.9835 6.46523 15.9265 6.33682 15.8266C6.2084 15.7267 6.10852 15.602 6.03718 15.4525C5.96584 15.3024 5.95157 15.1346 5.99438 14.9491L6.93609 10.904L3.7899 8.18585C3.64722 8.05744 3.55818 7.91104 3.5228 7.74667C3.48684 7.58287 3.4974 7.42249 3.55447 7.26554C3.61155 7.10858 3.69716 6.98017 3.81131 6.88029C3.92545 6.78041 4.08241 6.7162 4.28216 6.68767L8.43428 6.32382L10.0395 2.51415C10.1108 2.34293 10.2215 2.21451 10.3716 2.1289C10.5212 2.04329 10.6744 2.00049 10.8314 2.00049C10.9883 2.00049 11.1419 2.04329 11.292 2.1289C11.4415 2.21451 11.5519 2.34293 11.6233 2.51415L13.2285 6.32382L17.3806 6.68767C17.5803 6.7162 17.7373 6.78041 17.8514 6.88029C17.9656 6.98017 18.0512 7.10858 18.1083 7.26554C18.1653 7.42249 18.1762 7.58287 18.1408 7.74667C18.1048 7.91104 18.0155 8.05744 17.8728 8.18585L14.7267 10.904L15.6684 14.9491C15.7112 15.1346 15.6969 15.3024 15.6256 15.4525C15.5542 15.602 15.4543 15.7267 15.3259 15.8266C15.1975 15.9265 15.0477 15.9835 14.8765 15.9978C14.7053 16.0121 14.5412 15.9693 14.3842 15.8694L10.8314 13.7291Z" fill="#543B3A"/>
</g>
</svg>
