<svg width="14" height="14" viewBox="0 0 14 14" fill="none" xmlns="http://www.w3.org/2000/svg">
<mask id="mask0_1_809" style="mask-type:alpha" maskUnits="userSpaceOnUse" x="0" y="0" width="14" height="14">
<rect width="14" height="14" fill="#D9D9D9"/>
</mask>
<g mask="url(#mask0_1_809)">
<path d="M6.74412 9.74167L4.32329 11.2C4.21634 11.2681 4.10454 11.2972 3.98787 11.2875C3.8712 11.2778 3.76912 11.2389 3.68162 11.1708C3.59412 11.1028 3.52606 11.0178 3.47745 10.9159C3.42884 10.8136 3.41912 10.6993 3.44829 10.5729L4.08995 7.81667L1.9462 5.96458C1.84898 5.87708 1.78832 5.77733 1.7642 5.66533C1.7397 5.55372 1.7469 5.44444 1.78579 5.3375C1.82468 5.23056 1.88301 5.14305 1.96079 5.075C2.03857 5.00694 2.14551 4.96319 2.28162 4.94375L5.11079 4.69583L6.20454 2.1C6.25315 1.98333 6.32859 1.89583 6.43087 1.8375C6.53276 1.77917 6.63718 1.75 6.74412 1.75C6.85107 1.75 6.95568 1.77917 7.05795 1.8375C7.15984 1.89583 7.23509 1.98333 7.2837 2.1L8.37745 4.69583L11.2066 4.94375C11.3427 4.96319 11.4497 5.00694 11.5275 5.075C11.6052 5.14305 11.6636 5.23056 11.7025 5.3375C11.7413 5.44444 11.7487 5.55372 11.7246 5.66533C11.7001 5.77733 11.6393 5.87708 11.542 5.96458L9.39829 7.81667L10.04 10.5729C10.0691 10.6993 10.0594 10.8136 10.0108 10.9159C9.96218 11.0178 9.89412 11.1028 9.80662 11.1708C9.71912 11.2389 9.61704 11.2778 9.50037 11.2875C9.3837 11.2972 9.2719 11.2681 9.16495 11.2L6.74412 9.74167Z" fill="#543B3A"/>
</g>
</svg>
