<svg width="20" height="23" viewBox="0 0 20 23" fill="none" xmlns="http://www.w3.org/2000/svg">
<path fill-rule="evenodd" clip-rule="evenodd" d="M18.5208 11.1017L2.6428 2.39439C2.16687 2.13398 1.5889 2.14384 1.12213 2.42033C0.655358 2.69682 0.368979 3.19895 0.368652 3.74146V21.1561C0.368979 21.6986 0.655358 22.2007 1.12213 22.4772C1.5889 22.7537 2.16687 22.7636 2.6428 22.5032L18.5208 13.7959C19.0126 13.526 19.3182 13.0097 19.3182 12.4488C19.3182 11.8879 19.0126 11.3716 18.5208 11.1017ZM1.90524 21.1561V13.4732H8.56377C8.98809 13.4732 9.33207 13.1292 9.33207 12.7049C9.33207 12.2806 8.98809 11.9366 8.56377 11.9366H1.90524V3.74146L17.7833 12.4488L1.90524 21.1561Z" fill="#543B3A"/>
<circle cx="9.5" cy="5.5" r="5.5" fill="#FD4A40"/>
</svg>
