<svg width="28" height="26" viewBox="0 0 28 26" fill="none" xmlns="http://www.w3.org/2000/svg">
<path fill-rule="evenodd" clip-rule="evenodd" d="M26.8798 10.5904L15.3775 0.832356C14.6949 0.253635 13.6938 0.253635 13.0112 0.832356L1.50885 10.5904C0.937651 11.0771 0.721536 11.8632 0.963674 12.5735C1.20581 13.2838 1.8571 13.7742 2.60663 13.8106V23.5687C2.60663 24.5792 3.42579 25.3983 4.43627 25.3983H23.9524C24.9629 25.3983 25.7821 24.5792 25.7821 23.5687V13.8167C26.5316 13.7803 27.1829 13.2899 27.425 12.5796C27.6672 11.8693 27.451 11.0832 26.8798 10.5965V10.5904ZM13.5845 23.5748H12.3647V18.0859H16.024V23.5748H13.5845ZM23.9524 11.9871V23.5748H17.8536V18.0859C17.8536 17.0754 17.0345 16.2562 16.024 16.2562H12.3647C11.3542 16.2562 10.5351 17.0754 10.5351 18.0859V23.5748H4.43627V11.9871H2.69202L14.1943 2.22898L25.6967 11.9871H23.9524Z" fill="#503C3B"/>
<path d="M26.8798 10.5904H27.0798V10.4978L27.0092 10.4379L26.8798 10.5904ZM15.3775 0.832356L15.5069 0.679844L15.5068 0.679801L15.3775 0.832356ZM13.0112 0.832356L12.8818 0.679801L12.8818 0.679844L13.0112 0.832356ZM1.50885 10.5904L1.37946 10.4379L1.37914 10.4382L1.50885 10.5904ZM2.60663 13.8106H2.80663V13.6201L2.61634 13.6108L2.60663 13.8106ZM25.7821 13.8167L25.7724 13.6169L25.5821 13.6262V13.8167H25.7821ZM26.8798 10.5965H26.6798V10.6889L26.7501 10.7488L26.8798 10.5965ZM12.3647 23.5748H12.1647V23.7748H12.3647V23.5748ZM12.3647 18.0859V17.8859H12.1647V18.0859H12.3647ZM16.024 18.0859H16.224V17.8859H16.024V18.0859ZM16.024 23.5748V23.7748H16.224V23.5748H16.024ZM23.9524 11.9871V11.7871H23.7524V11.9871H23.9524ZM23.9524 23.5748V23.7748H24.1524V23.5748H23.9524ZM17.8536 23.5748H17.6536V23.7748H17.8536V23.5748ZM10.5351 23.5748V23.7748H10.7351V23.5748H10.5351ZM4.43627 23.5748H4.23627V23.7748H4.43627V23.5748ZM4.43627 11.9871H4.63627V11.7871H4.43627V11.9871ZM2.69202 11.9871L2.56263 11.8345L2.14711 12.1871H2.69202V11.9871ZM14.1943 2.22898L14.3237 2.07647L14.1943 1.96671L14.065 2.07647L14.1943 2.22898ZM25.6967 11.9871V12.1871H26.2416L25.8261 11.8345L25.6967 11.9871ZM27.0092 10.4379L15.5069 0.679844L15.2481 0.984867L26.7505 10.7429L27.0092 10.4379ZM15.5068 0.679801C14.7496 0.0378201 13.6391 0.0378201 12.8818 0.679801L13.1405 0.98491C13.7485 0.46945 14.6402 0.46945 15.2482 0.98491L15.5068 0.679801ZM12.8818 0.679844L1.37946 10.4379L1.63823 10.7429L13.1406 0.984867L12.8818 0.679844ZM1.37914 10.4382C0.745504 10.9781 0.505765 11.8501 0.774372 12.638L1.15298 12.509C0.937306 11.8763 1.1298 11.1761 1.63856 10.7427L1.37914 10.4382ZM0.774372 12.638C1.04298 13.4259 1.76546 13.97 2.59692 14.0104L2.61634 13.6108C1.94874 13.5784 1.36865 13.1416 1.15298 12.509L0.774372 12.638ZM2.40663 13.8106V23.5687H2.80663V13.8106H2.40663ZM2.40663 23.5687C2.40663 24.6896 3.31533 25.5983 4.43627 25.5983V25.1983C3.53625 25.1983 2.80663 24.4687 2.80663 23.5687H2.40663ZM4.43627 25.5983H23.9524V25.1983H4.43627V25.5983ZM23.9524 25.5983C25.0734 25.5983 25.9821 24.6896 25.9821 23.5687H25.5821C25.5821 24.4687 24.8525 25.1983 23.9524 25.1983V25.5983ZM25.9821 23.5687V13.8167H25.5821V23.5687H25.9821ZM25.7918 14.0165C26.6232 13.9761 27.3457 13.432 27.6143 12.6441L27.2357 12.5151C27.0201 13.1477 26.44 13.5845 25.7724 13.6169L25.7918 14.0165ZM27.6143 12.6441C27.8829 11.8562 27.6432 10.9842 27.0096 10.4443L26.7501 10.7488C27.2589 11.1822 27.4514 11.8824 27.2357 12.5151L27.6143 12.6441ZM27.0798 10.5965V10.5904H26.6798V10.5965H27.0798ZM13.5845 23.3748H12.3647V23.7748H13.5845V23.3748ZM12.5647 23.5748V18.0859H12.1647V23.5748H12.5647ZM12.3647 18.2859H16.024V17.8859H12.3647V18.2859ZM15.824 18.0859V23.5748H16.224V18.0859H15.824ZM16.024 23.3748H13.5845V23.7748H16.024V23.3748ZM23.7524 11.9871V23.5748H24.1524V11.9871H23.7524ZM23.9524 23.3748H17.8536V23.7748H23.9524V23.3748ZM18.0536 23.5748V18.0859H17.6536V23.5748H18.0536ZM18.0536 18.0859C18.0536 16.9649 17.1449 16.0562 16.024 16.0562V16.4562C16.924 16.4562 17.6536 17.1858 17.6536 18.0859H18.0536ZM16.024 16.0562H12.3647V16.4562H16.024V16.0562ZM12.3647 16.0562C11.2438 16.0562 10.3351 16.9649 10.3351 18.0859H10.7351C10.7351 17.1858 11.4647 16.4562 12.3647 16.4562V16.0562ZM10.3351 18.0859V23.5748H10.7351V18.0859H10.3351ZM10.5351 23.3748H4.43627V23.7748H10.5351V23.3748ZM4.63627 23.5748V11.9871H4.23627V23.5748H4.63627ZM4.43627 11.7871H2.69202V12.1871H4.43627V11.7871ZM2.8214 12.1396L14.3237 2.38149L14.065 2.07647L2.56263 11.8345L2.8214 12.1396ZM14.065 2.38149L25.5673 12.1396L25.8261 11.8345L14.3237 2.07647L14.065 2.38149ZM25.6967 11.7871H23.9524V12.1871H25.6967V11.7871Z" fill="#503C3B"/>
</svg>
