<svg width="39" height="19" viewBox="0 0 39 19" fill="none" xmlns="http://www.w3.org/2000/svg">
<path fill-rule="evenodd" clip-rule="evenodd" d="M30.1786 0.347839C28.1822 0.347839 25.8668 1.58329 22.8722 4.24238C21.6945 5.29349 20.5721 6.40499 19.5095 7.57238V7.57238L17.7995 9.34784V9.34784C17.7995 9.34784 12.0231 15.8933 8.79949 15.8933C5.57586 15.8933 3.07222 12.9642 3.07222 9.34784C3.07222 5.73148 5.65768 2.80238 8.79949 2.80238C10.8122 2.80238 13.8477 5.4042 15.8195 7.32693L17.5622 5.5842C15.2304 3.29329 11.6795 0.347839 8.79949 0.347839C4.26677 0.347839 0.617676 4.38148 0.617676 9.34784C0.617676 14.3142 4.30768 18.3478 8.79949 18.3478C10.7959 18.3478 13.1113 17.1124 16.1059 14.4533C17.2836 13.4022 18.406 12.2907 19.4686 11.1233V11.1233L21.1704 9.34784V9.34784C21.1704 9.34784 26.9468 2.80238 30.1704 2.80238C33.394 2.80238 35.8977 5.73148 35.8977 9.34784C35.8977 12.9642 33.3122 15.8933 30.1704 15.8933C28.1659 15.8933 25.1222 13.2915 23.1586 11.3687L21.4404 13.1442C23.7722 15.4269 27.3068 18.3478 30.1786 18.3478C34.7113 18.3478 38.3604 14.3142 38.3604 9.34784C38.3604 4.38148 34.7113 0.347839 30.1786 0.347839Z" fill="#503C3B"/>
</svg>
