<svg width="21" height="22" viewBox="0 0 21 22" fill="none" xmlns="http://www.w3.org/2000/svg">
<path fill-rule="evenodd" clip-rule="evenodd" d="M19.1522 9.32494L3.27415 0.399131C2.79822 0.132191 2.22024 0.142298 1.75348 0.425723C1.28671 0.709148 1.00033 1.22388 1 1.78001V19.6316C1.00033 20.1877 1.28671 20.7025 1.75348 20.9859C2.22024 21.2693 2.79822 21.2794 3.27415 21.0125L19.1522 12.0867C19.6439 11.8101 19.9495 11.2808 19.9495 10.7058C19.9495 10.1308 19.6439 9.60155 19.1522 9.32494ZM2.53659 19.6316V11.7559H9.19512C9.61944 11.7559 9.96342 11.4033 9.96342 10.9683C9.96342 10.5334 9.61944 10.1808 9.19512 10.1808H2.53659V1.78001L18.4146 10.7058L2.53659 19.6316Z" fill="#543B3B"/>
<path d="M3.27415 0.399131L3.32315 0.31196L3.32307 0.311913L3.27415 0.399131ZM1 1.78001L0.9 1.77995V1.78001H1ZM1 19.6316H0.9L0.9 19.6317L1 19.6316ZM3.27415 21.0125L3.32307 21.0997L3.32315 21.0997L3.27415 21.0125ZM19.1522 12.0867L19.2012 12.1739L19.2012 12.1738L19.1522 12.0867ZM2.53659 19.6316H2.43659V19.8025L2.58559 19.7188L2.53659 19.6316ZM2.53659 11.7559V11.6559H2.43659V11.7559H2.53659ZM2.53659 10.1808H2.43659V10.2808H2.53659V10.1808ZM2.53659 1.78001L2.58559 1.69283L2.43659 1.60907V1.78001H2.53659ZM18.4146 10.7058L18.4636 10.793L18.6187 10.7058L18.4636 10.6186L18.4146 10.7058ZM19.2012 9.23777L3.32315 0.31196L3.22514 0.486301L19.1032 9.41211L19.2012 9.23777ZM3.32307 0.311913C2.81565 0.0273108 2.19915 0.0381168 1.70157 0.340246L1.80538 0.511199C2.24134 0.246479 2.78079 0.237071 3.22523 0.486348L3.32307 0.311913ZM1.70157 0.340246C1.20429 0.642199 0.900346 1.18969 0.9 1.77995L1.1 1.78006C1.10031 1.25807 1.36912 0.776096 1.80538 0.511199L1.70157 0.340246ZM0.9 1.78001V19.6316H1.1V1.78001H0.9ZM0.9 19.6317C0.900346 20.2219 1.20429 20.7694 1.70157 21.0714L1.80538 20.9004C1.36912 20.6355 1.10031 20.1536 1.1 19.6316L0.9 19.6317ZM1.70157 21.0714C2.19915 21.3735 2.81565 21.3843 3.32307 21.0997L3.22523 20.9253C2.78079 21.1746 2.24134 21.1651 1.80538 20.9004L1.70157 21.0714ZM3.32315 21.0997L19.2012 12.1739L19.1032 11.9995L3.22514 20.9253L3.32315 21.0997ZM19.2012 12.1738C19.7252 11.8791 20.0495 11.316 20.0495 10.7058H19.8495C19.8495 11.2455 19.5627 11.741 19.1032 11.9995L19.2012 12.1738ZM20.0495 10.7058C20.0495 10.0956 19.7252 9.53253 19.2012 9.23778L19.1032 9.41209C19.5627 9.67058 19.8495 10.1661 19.8495 10.7058H20.0495ZM2.63659 19.6316V11.7559H2.43659V19.6316H2.63659ZM2.53659 11.8559H9.19512V11.6559H2.53659V11.8559ZM9.19512 11.8559C9.67699 11.8559 10.0634 11.4562 10.0634 10.9683H9.86341C9.86341 11.3504 9.56189 11.6559 9.19512 11.6559V11.8559ZM10.0634 10.9683C10.0634 10.4805 9.67699 10.0808 9.19512 10.0808V10.2808C9.56189 10.2808 9.86341 10.5862 9.86341 10.9683H10.0634ZM9.19512 10.0808H2.53659V10.2808H9.19512V10.0808ZM2.63659 10.1808V1.78001H2.43659V10.1808H2.63659ZM2.48758 1.86718L18.3656 10.793L18.4636 10.6186L2.58559 1.69283L2.48758 1.86718ZM18.3656 10.6186L2.48758 19.5444L2.58559 19.7188L18.4636 10.793L18.3656 10.6186Z" fill="#543B3B"/>
</svg>
