<svg width="50" height="6" viewBox="0 0 50 6" fill="none" xmlns="http://www.w3.org/2000/svg">
<path fill-rule="evenodd" clip-rule="evenodd" d="M5.92478 2.97533C5.92478 4.61867 4.59735 5.95089 2.96239 5.95089C1.32522 5.95089 0 4.61867 0 2.97533C0 1.332 1.32522 0 2.96239 0C4.59735 0 5.92478 1.332 5.92478 2.97533Z" fill="#503C3B"/>
<path opacity="0.2" fill-rule="evenodd" clip-rule="evenodd" d="M16.9028 2.97533C16.9028 4.61867 15.5754 5.95089 13.9404 5.95089C12.3032 5.95089 10.978 4.61867 10.978 2.97533C10.978 1.332 12.3032 0 13.9404 0C15.5754 0 16.9028 1.332 16.9028 2.97533Z" fill="#503C3B"/>
<path opacity="0.2" fill-rule="evenodd" clip-rule="evenodd" d="M27.8784 2.97533C27.8784 4.61867 26.5532 5.95089 24.916 5.95089C23.281 5.95089 21.9536 4.61867 21.9536 2.97533C21.9536 1.332 23.281 0 24.916 0C26.5532 0 27.8784 1.332 27.8784 2.97533Z" fill="#503C3B"/>
<path opacity="0.2" fill-rule="evenodd" clip-rule="evenodd" d="M38.8564 2.97533C38.8564 4.61867 37.5312 5.95089 35.894 5.95089C34.2591 5.95089 32.9316 4.61867 32.9316 2.97533C32.9316 1.332 34.2591 0 35.894 0C37.5312 0 38.8564 1.332 38.8564 2.97533Z" fill="#503C3B"/>
<path opacity="0.2" fill-rule="evenodd" clip-rule="evenodd" d="M49.834 2.97533C49.834 4.61867 48.5065 5.95089 46.8716 5.95089C45.2344 5.95089 43.9092 4.61867 43.9092 2.97533C43.9092 1.332 45.2344 0 46.8716 0C48.5065 0 49.834 1.332 49.834 2.97533Z" fill="#503C3B"/>
</svg>
